<svg width="47" height="19" viewBox="0 0 47 19" fill="none" xmlns="http://www.w3.org/2000/svg">
<path d="M0.68 18V0.719999H3.608L11.624 12.9V0.719999H14.552V18H11.624L3.608 5.82V18H0.68ZM23.6306 18.36C22.3346 18.36 21.2026 18.068 20.2346 17.484C19.2666 16.9 18.5146 16.096 17.9786 15.072C17.4506 14.04 17.1866 12.856 17.1866 11.52C17.1866 10.16 17.4586 8.968 18.0026 7.944C18.5466 6.92 19.3026 6.12 20.2706 5.544C21.2386 4.968 22.3586 4.68 23.6306 4.68C24.9346 4.68 26.0706 4.972 27.0386 5.556C28.0066 6.14 28.7586 6.948 29.2946 7.98C29.8306 9.004 30.0986 10.184 30.0986 11.52C30.0986 12.864 29.8266 14.052 29.2826 15.084C28.7466 16.108 27.9946 16.912 27.0266 17.496C26.0586 18.072 24.9266 18.36 23.6306 18.36ZM23.6306 15.648C24.7826 15.648 25.6386 15.264 26.1986 14.496C26.7586 13.728 27.0386 12.736 27.0386 11.52C27.0386 10.264 26.7546 9.264 26.1866 8.52C25.6186 7.768 24.7666 7.392 23.6306 7.392C22.8546 7.392 22.2146 7.568 21.7106 7.92C21.2146 8.264 20.8466 8.748 20.6066 9.372C20.3666 9.988 20.2466 10.704 20.2466 11.52C20.2466 12.776 20.5306 13.78 21.0986 14.532C21.6746 15.276 22.5186 15.648 23.6306 15.648ZM32.9825 3.072V0.42H35.8745V3.072H32.9825ZM32.9825 18V5.04H35.8745V18H32.9825ZM39.4691 18V5.04H42.0251V8.196L41.7131 7.788C41.8731 7.356 42.0851 6.964 42.3491 6.612C42.6211 6.252 42.9451 5.956 43.3211 5.724C43.6411 5.508 43.9931 5.34 44.3771 5.22C44.7691 5.092 45.1691 5.016 45.5771 4.992C45.9851 4.96 46.3811 4.976 46.7651 5.04V7.74C46.3811 7.628 45.9371 7.592 45.4331 7.632C44.9371 7.672 44.4891 7.812 44.0891 8.052C43.6891 8.268 43.3611 8.544 43.1051 8.88C42.8571 9.216 42.6731 9.6 42.5531 10.032C42.4331 10.456 42.3731 10.916 42.3731 11.412V18H39.4691Z" fill="white"/>
</svg>
