<svg width="24" height="24" viewBox="0 0 24 24" fill="none" xmlns="http://www.w3.org/2000/svg">
<g clip-path="url(#clip0_10_371)">
<path d="M21.4302 6.06025C21.446 6.28232 21.446 6.50444 21.446 6.72651C21.446 13.5 16.2906 21.3045 6.86802 21.3045C3.96509 21.3045 1.26841 20.4638 -1 19.0044C-0.587549 19.052 -0.191016 19.0679 0.237305 19.0679C2.63257 19.0679 4.83755 18.2589 6.59834 16.8788C4.3458 16.8312 2.45811 15.356 1.80771 13.3255C2.125 13.373 2.44224 13.4048 2.77539 13.4048C3.2354 13.4048 3.69546 13.3413 4.12373 13.2303C1.77603 12.7544 0.0151856 10.6922 0.0151856 8.20176V8.13833C0.697266 8.51904 1.49048 8.75698 2.33115 8.78867C0.951074 7.8686 0.0469239 6.29819 0.0469239 4.52153C0.0469239 3.56978 0.300684 2.69731 0.744873 1.93589C3.26709 5.04502 7.05835 7.07544 11.3096 7.29756C11.2303 6.91685 11.1827 6.52031 11.1827 6.12373C11.1827 3.3001 13.4669 1 16.3064 1C17.7816 1 19.1141 1.61865 20.05 2.61802C21.208 2.39595 22.3184 1.96763 23.302 1.38071C22.9212 2.57046 22.1122 3.56982 21.0494 4.2043C22.0805 4.09331 23.0799 3.80771 23.9999 3.41118C23.302 4.42637 22.4295 5.33052 21.4302 6.06025Z" fill="white"/>
</g>
<defs>
<clipPath id="clip0_10_371">
<rect width="24" height="24" fill="white"/>
</clipPath>
</defs>
</svg>
